# xmcd
# 
# Track frame offsets:
#     150
#     21662
#     41137
#     60802
#     81910
#     102330
#     123002
#     143425
#     161195
#     182457
#     205470
#     224442
#     243500
#     262405
# 
# Disc length: 3751
# 
# Revision: 7
# Processed by: cddbd v1.5.2PL0 Copyright (c) Steve Scherf et al.
# Submitted via: fre:ac v1.0.17
# 
DISCID=cd0ea50e
DTITLE=Deborah Cox - k-One Wish
DYEAR=1998
DGENRE=R&B
TTITLE0=September
TTITLE1=It's Over Now
TTITLE2=Nobody's Supposed To Be Here
TTITLE3=We Can't Be Friends (Duet with R.L. from Next)
TTITLE4=Couldn't We
TTITLE5=One Wish
TTITLE6=I Won't Give Up
TTITLE7=Just When I Think I'm Over You
TTITLE8=Love Is On The Way
TTITLE9=I Never Knew
TTITLE10=One Day You Will
TTITLE11=Nobody's Supposed To Be Here (Dance Mix)
TTITLE12=Things Just Ain't The Same (Dance Mix)
TTITLE13=September (Dance Mix)
EXTD=YEAR: 1998 ID3G: 14
EXTT0=
EXTT1=
EXTT2=
EXTT3=
EXTT4=
EXTT5=
EXTT6=
EXTT7=
EXTT8=
EXTT9=
EXTT10=
EXTT11=
EXTT12=
EXTT13=
PLAYORDER=
